<?xml version="1.0" encoding="UTF-8" standalone="no"?>
<svg
   xmlns:dc="http://purl.org/dc/elements/1.1/"
   xmlns:cc="http://creativecommons.org/ns#"
   xmlns:rdf="http://www.w3.org/1999/02/22-rdf-syntax-ns#"
   xmlns:svg="http://www.w3.org/2000/svg"
   xmlns="http://www.w3.org/2000/svg"
   version="1.1"
   width="512"
   height="512"
   x="0"
   y="0"
   viewBox="0 0 128 128"
   style="enable-background:new 0 0 512 512"
   xml:space="preserve"
   class=""
   id="svg857"><metadata
     id="metadata863"><rdf:RDF><cc:Work
         rdf:about=""><dc:format>image/svg+xml</dc:format><dc:type
           rdf:resource="http://purl.org/dc/dcmitype/StillImage" /><dc:title></dc:title></cc:Work></rdf:RDF></metadata><defs
     id="defs861" /><rect
     style="fill:#ececec;fill-opacity:1;stroke-width:1.35752;stroke-linecap:round;stroke-linejoin:round;stroke-dasharray:1.35752, 2.71503;paint-order:fill markers stroke"
     id="rect1493"
     width="128"
     height="128"
     x="0"
     y="0" /><g
     id="g853"
     data-name="Filled outline"
     transform="matrix(0.8,0,0,0.8,12.796243,12.799755)"><path
       id="path833"
       class=""
       data-original="#ffa000"
       d="m 125.786,76.705 c -0.266,-7.918 -0.45,-13.384 -4.646,-17.565 -3.81,-3.8 -8.871,-4.491 -11.358,-4.639 a 56.854,56.854 0 0 1 5.718,25 l -0.036,11.071 a 49.306,49.306 0 0 1 -0.7,8.095 15.063,15.063 0 0 0 7.62,-4.3 c 3.855,-4.199 3.675,-9.546 3.402,-17.662 z M 12.5,90.571 12.464,79.5 a 56.854,56.854 0 0 1 5.718,-25 c -2.487,0.148 -7.548,0.842 -11.358,4.639 -4.2,4.181 -4.38,9.647 -4.646,17.565 -0.273,8.116 -0.453,13.463 3.406,17.665 a 15.065,15.065 0 0 0 7.619,4.3 49.415,49.415 0 0 1 -0.703,-8.098 z"
       fill="#ffa000" /><path
       id="path835"
       class=""
       data-original="#ffc107"
       d="M 64.018,24 C 34.855,24 12.239,51.214 12.5,79.5 l 0.036,11.07 c 0.088,27.049 22.04,35.93 49.09,35.93 h 4.784 c 27.05,0 49,-8.881 49.09,-35.93 L 115.536,79.5 C 115.8,51.214 93.181,24 64.018,24 Z"
       fill="#ffc107" /><path
       id="path837"
       class=""
       data-original="#424242"
       d="M 64,37 C 39.521,37 22.1,58.257 24.679,82.373 A 17.974,17.974 0 0 0 42.5,98.5 c 10.75,-0.03 10.75,-6 21.5,-6 10.75,0 10.75,5.97 21.5,6 A 17.974,17.974 0 0 0 103.321,82.373 C 105.9,58.257 88.479,37 64,37 Z"
       fill="#424242" /><g
       id="g841"
       fill="#ffffff"><path
         id="path839"
         class=""
         data-original="#ffffff"
         fill="#ffffff"
         d="m 73.224,73.75 a 4.562,4.562 0 0 0 -6.357,0.036 3.59,3.59 0 0 1 -5.663,0.006 4.5004961,4.5004961 0 0 0 -6.41,6.319 12.568,12.568 0 0 0 18.475,0 4.528,4.528 0 0 0 -0.045,-6.361 z M 85.5,59.671 A 4.568,4.568 0 0 0 81,55 4.515,4.515 0 0 0 76.5,59.5 v 7 A 4.516,4.516 0 0 0 81,71 4.569,4.569 0 0 0 85.5,66.329 c 0,-1.665 -0.006,-4.993 0,-6.658 z M 47,55 a 4.569,4.569 0 0 0 -4.5,4.671 c 0.005,1.665 0.005,4.993 0,6.658 A 4.569,4.569 0 0 0 47,71 4.516,4.516 0 0 0 51.5,66.5 v -7 A 4.516,4.516 0 0 0 47,55 Z" /></g><circle
       id="circle843"
       class=""
       data-original="#424242"
       fill="#424242"
       r="6"
       cy="108"
       cx="64" /><circle
       id="circle845"
       class=""
       data-original="#424242"
       fill="#424242"
       r="6.25"
       cy="7.75"
       cx="64" /><path
       id="path847"
       class=""
       data-original="#000000"
       fill="#000000"
       d="m 12.038,99.9 c 4.125,18.426 21.054,28.1 49.587,28.1 h 4.785 c 28.545,0 45.477,-9.681 49.593,-28.124 a 16.076,16.076 0 0 0 7.481,-4.491 c 4.276,-4.655 4.077,-10.559 3.8,-18.733 -0.273,-8.113 -0.471,-13.975 -5.087,-18.574 a 18.514,18.514 0 0 0 -11.444,-5 A 59.449,59.449 0 0 0 99.945,38.036 C 90.389,28.39 78.208,22.936 65.5,22.536 v -7.185 a 7.75,7.75 0 1 0 -3,0 v 7.186 c -12.694,0.405 -24.861,5.862 -34.408,15.5 a 59.44,59.44 0 0 0 -10.8,15.031 18.549,18.549 0 0 0 -11.527,5.01 C 1.149,62.677 0.952,68.539 0.679,76.657 0.4,84.828 0.205,90.731 4.479,95.385 A 16.118,16.118 0 0 0 12.038,99.9 Z M 120.081,60.2 c 3.775,3.761 3.946,8.849 4.206,16.552 0.27,8.014 0.433,12.85 -3.012,16.6 a 12.573,12.573 0 0 1 -4.675,3.15 46.109,46.109 0 0 0 0.4,-5.93 l 0.036,-11.061 a 57.318,57.318 0 0 0 -4.763,-23.2 14.747,14.747 0 0 1 7.808,3.889 z M 59.25,7.75 A 4.75,4.75 0 1 1 64,12.5 4.756,4.756 0 0 1 59.25,7.75 Z M 30.223,40.15 C 39.583,30.7 51.584,25.5 64.018,25.5 c 12.434,0 24.436,5.2 33.8,14.649 A 55.658,55.658 0 0 1 114.036,79.5 L 114,90.565 C 113.926,113.415 97.914,125 66.41,125 H 61.625 C 30.125,125 14.11,113.415 14.036,90.565 L 14,79.486 A 55.653,55.653 0 0 1 30.223,40.146 Z M 3.677,76.753 c 0.259,-7.7 0.43,-12.789 4.205,-16.55 a 14.8,14.8 0 0 1 7.889,-3.9 A 57.3,57.3 0 0 0 11,79.505 l 0.036,11.07 a 46.066,46.066 0 0 0 0.4,5.963 12.609,12.609 0 0 1 -4.751,-3.183 C 3.245,89.605 3.407,84.77 3.677,76.753 Z" /><path
       id="path849"
       class=""
       data-original="#000000"
       fill="#000000"
       d="M 42.449,100 A 20.7,20.7 0 0 0 53.969,96.805 17.818,17.818 0 0 1 64,94 17.811,17.811 0 0 1 74.03,96.805 20.711,20.711 0 0 0 85.552,100 19.4,19.4 0 0 0 104.813,82.532 43.442,43.442 0 0 0 94.225,48.843 40.1,40.1 0 0 0 64,35.5 40.1,40.1 0 0 0 33.776,48.843 43.442,43.442 0 0 0 23.187,82.532 19.4,19.4 0 0 0 42.449,100 Z M 36.007,50.848 A 37.132,37.132 0 0 1 64,38.5 37.129,37.129 0 0 1 91.993,50.849 40.44,40.44 0 0 1 101.83,82.213 16.41,16.41 0 0 1 85.551,97 17.938,17.938 0 0 1 75.49,94.184 20.583,20.583 0 0 0 64,91 20.585,20.585 0 0 0 52.51,94.184 17.93,17.93 0 0 1 42.449,97 16.412,16.412 0 0 1 26.17,82.213 40.444,40.444 0 0 1 36.007,50.848 Z" /><path
       id="path851"
       class=""
       data-original="#000000"
       fill="#000000"
       d="m 53.724,81.162 a 14.066,14.066 0 0 0 20.615,0 6,6 0 0 0 -8.546,-8.423 2.127,2.127 0 0 1 -3.516,0.006 6,6 0 1 0 -8.553,8.417 z m 2.18,-6.356 a 3.084,3.084 0 0 1 4.226,0.034 5.135,5.135 0 0 0 7.811,-0.007 3.083,3.083 0 0 1 4.217,-0.027 3.04,3.04 0 0 1 0.04,4.255 11.071,11.071 0 0 1 -16.333,0 3.04,3.04 0 0 1 0.035,-4.255 z M 80.99,72.5 A 6.14,6.14 0 0 0 87,66.324 300.571,300.571 0 0 1 87,59.677 6.139,6.139 0 0 0 80.99,53.5 6.049,6.049 0 0 0 75,59.5 v 7 a 6.049,6.049 0 0 0 5.99,6 z M 78,59.5 a 3.03,3.03 0 0 1 3.01,-3 3.106,3.106 0 0 1 2.99,3.166 c -0.026,1.667 -0.025,5 0,6.667 A 3.1,3.1 0 0 1 81.01,69.5 3.017,3.017 0 0 1 78,66.5 Z m -30.99,13 a 6.048,6.048 0 0 0 5.99,-6 v -7 a 6.048,6.048 0 0 0 -5.99,-6 6.14,6.14 0 0 0 -6.01,6.176 c 0.024,1.662 0.024,4.986 0,6.648 A 6.14,6.14 0 0 0 47.01,72.5 Z M 44,59.667 A 3.107,3.107 0 0 1 46.991,56.5 3.03,3.03 0 0 1 50,59.5 v 7 a 3.03,3.03 0 0 1 -3.009,3 A 3.107,3.107 0 0 1 44,66.333 c 0.024,-1.666 0.024,-5 0,-6.666 z M 64,100.5 a 7.5,7.5 0 1 0 7.5,7.5 7.508,7.508 0 0 0 -7.5,-7.5 z m 0,12 a 4.5,4.5 0 1 1 4.5,-4.5 4.505,4.505 0 0 1 -4.5,4.5 z" /></g></svg>
